HIERARCHY
ROOT Hips
{
 OFFSET 0.000000 0.000000 0.000000
 CHANNELS 6 Xposition Yposition Zposition Yrotation Xrotation Zrotation
 JOINT Chest
 {
  OFFSET 0.000000 10.354800 0.006500
  CHANNELS 3 Yrotation Xrotation Zrotation
  JOINT Chest2
  {
   OFFSET 0.000000 10.435800 -0.013200
   CHANNELS 3 Yrotation Xrotation Zrotation
   JOINT Chest3
   {
    OFFSET 0.000000 10.393700 0.000000
    CHANNELS 3 Yrotation Xrotation Zrotation
    JOINT Chest4
    {
     OFFSET 0.000000 10.383100 0.000000
     CHANNELS 3 Yrotation Xrotation Zrotation
     JOINT Neck
     {
      OFFSET 0.000000 15.694000 0.000000
      CHANNELS 3 Yrotation Xrotation Zrotation
      JOINT Head
      {
       OFFSET 0.000000 9.711000 -0.028000
       CHANNELS 3 Yrotation Xrotation Zrotation
       End Site
       {
        OFFSET 0.000000 18.578700 -0.014800
       }
      }
     }
     JOINT RightCollar
     {
      OFFSET -3.157200 10.367500 0.000000
      CHANNELS 3 Yrotation Xrotation Zrotation
      JOINT RightShoulder
      {
       OFFSET -14.482500 0.000000 0.000000
       CHANNELS 3 Yrotation Xrotation Zrotation
       JOINT RightElbow
       {
        OFFSET 0.000000 -31.707800 0.000000
        CHANNELS 3 Yrotation Xrotation Zrotation
        JOINT RightWrist
        {
         OFFSET 0.000000 -25.659300 0.000000
         CHANNELS 3 Yrotation Xrotation Zrotation
         End Site
         {
          OFFSET 0.000000 -18.994300 0.000000
         }
        }
       }
      }
     }
     JOINT LeftCollar
     {
      OFFSET 3.157200 10.367500 0.000000
      CHANNELS 3 Yrotation Xrotation Zrotation
      JOINT LeftShoulder
      {
       OFFSET 14.482500 0.000000 0.000000
       CHANNELS 3 Yrotation Xrotation Zrotation
       JOINT LeftElbow
       {
        OFFSET 0.000000 -31.707800 0.000000
        CHANNELS 3 Yrotation Xrotation Zrotation
        JOINT LeftWrist
        {
         OFFSET 0.000000 -25.659300 0.000000
         CHANNELS 3 Yrotation Xrotation Zrotation
         End Site
         {
          OFFSET 0.000000 -18.994300 0.000000
         }
        }
       }
      }
     }
    }
   }
  }
 }
 JOINT RightHip
 {
  OFFSET -8.365600 -0.032100 -0.003200
  CHANNELS 3 Yrotation Xrotation Zrotation
  JOINT RightKnee
  {
   OFFSET 0.000000 -43.980000 0.003100
   CHANNELS 3 Yrotation Xrotation Zrotation
   JOINT RightAnkle
   {
    OFFSET 0.000000 -42.882800 0.005200
    CHANNELS 3 Yrotation Xrotation Zrotation
    JOINT RightToe
    {
     OFFSET 0.000000 -4.915500 10.826300
     CHANNELS 3 Yrotation Xrotation Zrotation
     End Site
     {
      OFFSET 0.000000 -1.517500 6.175900
     }
    }
   }
  }
 }
 JOINT LeftHip
 {
  OFFSET 8.365600 -0.032100 -0.003200
  CHANNELS 3 Yrotation Xrotation Zrotation
  JOINT LeftKnee
  {
   OFFSET 0.000000 -43.980000 0.003100
   CHANNELS 3 Yrotation Xrotation Zrotation
   JOINT LeftAnkle
   {
    OFFSET 0.000000 -42.882800 0.005200
    CHANNELS 3 Yrotation Xrotation Zrotation
    JOINT LeftToe
    {
     OFFSET 0.000000 -4.915500 10.826300
     CHANNELS 3 Yrotation Xrotation Zrotation
     End Site
     {
      OFFSET 0.000000 -1.517500 6.175900
     }
    }
   }
  }
 }
}
MOTION
Frames: 13
Frame Time: 0.008333
-6.930210 127.399450 34.764954 -170.060694 -58.036503 -6.918266 4.725161 25.321973 -3.042320 0.855315 4.169271 -0.634603 1.341996 6.653112 -0.979783 3.934216 20.846115 -2.626870 -0.913542 25.464707 -0.217906 -0.947835 1.954269 -0.015602 15.581119 4.134949 -6.602173 34.190979 -45.646974 -26.499725 -172.279513 -51.173931 -166.522516 -7.545177 -26.438410 -57.926695 -5.930563 16.501868 6.740673 -22.021532 -57.707029 -4.978886 -176.976243 -46.835657 167.742726 3.580426 -4.206953 39.547704 -1.377335 -20.337844 -12.350028 -142.386745 82.495405 -136.365048 -0.132859 -17.399628 0.465854 0.003354 -0.000396 0.001523 -22.871849 -23.439674 -4.003524 65.508316 77.092743 60.564804 -2.174206 -5.108312 -9.025040 0.000412 0.013062 0.000187
-6.931336 127.396900 34.771204 -170.053546 -58.073342 -6.932642 4.732024 25.314085 -3.042705 0.857798 4.169019 -0.633382 1.343782 6.685587 -0.968841 3.936754 20.833975 -2.627954 -0.912197 25.429844 -0.198666 -0.953350 1.963622 0.005470 15.578933 4.098802 -6.612261 34.179287 -45.642942 -26.470967 -172.434823 -51.156965 -166.437940 -7.510232 -26.452826 -57.903185 -5.921594 16.465003 6.738866 -22.032031 -57.676849 -4.983319 -176.938673 -46.834005 167.729532 3.546608 -4.219583 39.522228 -1.372599 -20.307851 -12.341435 -142.090674 82.506003 -136.085284 -0.125478 -17.354030 0.474304 0.003118 -0.000052 0.001416 -22.876976 -23.408490 -4.000740 65.372107 77.081155 60.410311 -2.186871 -5.065196 -9.010140 -0.001382 0.009719 -0.000627
-6.928453 127.400373 34.773517 -170.058515 -58.144809 -6.960513 4.763178 25.337869 -3.012804 0.859678 4.190625 -0.626307 1.346703 6.664778 -0.973927 3.969624 20.787373 -2.623366 -0.920440 25.471398 -0.165902 -0.960274 1.986686 0.013900 15.552778 4.128158 -6.581138 34.169065 -45.642263 -26.445211 -172.609181 -51.138042 -166.341954 -7.471383 -26.471025 -57.870582 -5.930222 16.496002 6.750151 -22.076454 -57.662446 -4.958708 -176.903896 -46.864653 167.733869 3.498657 -4.232256 39.482454 -1.366525 -20.240953 -12.308223 -141.886175 82.515026 -135.887605 -0.120776 -17.320781 0.480339 0.004423 -0.002196 0.002008 -22.875455 -23.337566 -3.988950 65.306711 77.087643 60.331281 -2.190760 -5.042162 -8.999290 -0.003383 0.003278 -0.001536
-6.928006 127.395612 34.780820 -170.061207 -58.160251 -6.970574 4.776233 25.310163 -3.007597 0.860398 4.209568 -0.620659 1.361048 6.600294 -0.986149 3.991468 20.829028 -2.596449 -0.928035 25.467184 -0.145868 -0.970774 2.010205 0.022581 15.518207 4.069966 -6.582061 34.126987 -45.608778 -26.360400 -172.789979 -51.113601 -166.240362 -7.428510 -26.485122 -57.835637 -5.936693 16.483006 6.755130 -22.116076 -57.641623 -4.928288 -176.859910 -46.854685 167.734406 3.506507 -4.202412 39.462002 -1.352827 -20.235321 -12.300115 -141.742318 82.509995 -135.740408 -0.110521 -17.300109 0.486252 0.008020 0.000097 0.003641 -22.880411 -23.327064 -3.974489 65.240572 77.101792 60.252241 -2.162742 -5.026362 -8.988300 -0.001859 0.005692 -0.000844
-6.925915 127.394817 34.785352 -170.077379 -58.199209 -6.979782 4.805154 25.307476 -2.987668 0.864439 4.206044 -0.619349 1.368434 6.603233 -0.982702 4.015038 20.826862 -2.583951 -0.937638 25.459393 -0.127100 -0.986020 2.005579 0.049457 15.492367 4.084375 -6.566260 34.114280 -45.627733 -26.347202 -172.969431 -51.086842 -166.138083 -7.384621 -26.491220 -57.802779 -5.949726 16.470861 6.759841 -22.120220 -57.615257 -4.924672 -176.852492 -46.800793 167.720993 3.512832 -4.130870 39.464076 -1.338264 -20.208565 -12.281415 -141.558760 82.498352 -135.556794 -0.089545 -17.277247 0.501195 0.010497 -0.000692 0.004766 -22.865839 -23.292345 -3.965659 65.193982 77.115554 60.200334 -2.116088 -5.008262 -8.976533 -0.002107 0.004152 -0.000957
-6.922829 127.398463 34.786837 -170.138254 -58.266635 -6.958997 4.861739 25.334329 -2.959032 0.874230 4.168278 -0.626625 1.373017 6.640752 -0.969498 4.041247 20.824712 -2.571138 -0.948152 25.446796 -0.109812 -1.004629 1.946453 0.090789 15.464619 4.094787 -6.551599 34.105779 -45.646569 -26.333169 -173.137296 -51.064497 -166.042806 -7.343898 -26.495717 -57.773939 -5.967207 16.459047 6.765121 -22.090074 -57.591846 -4.942628 -176.886753 -46.778526 167.733429 3.501633 -4.091304 39.414288 -1.290659 -20.159751 -12.269092 -141.445287 82.484364 -135.431500 -0.071758 -17.252836 0.533135 0.007011 -0.008316 0.003183 -22.826354 -23.222143 -3.959565 65.140753 77.121392 60.139344 -2.093163 -4.995794 -8.963951 -0.005646 0.001475 -0.002564
-6.920956 127.397533 34.790793 -170.179839 -58.301261 -6.945518 4.893515 25.335036 -2.946658 0.879328 4.168161 -0.625139 1.380196 6.654074 -0.961996 4.066563 20.808907 -2.565839 -0.957326 25.430828 -0.093673 -1.019579 1.910547 0.116445 15.445184 4.043003 -6.548354 34.066450 -45.620234 -26.263423 -173.252541 -51.060022 -165.979231 -7.314726 -26.501994 -57.753801 -5.980349 16.445284 6.772814 -22.028245 -57.591762 -4.940022 -176.988136 -46.778051 167.810492 3.509412 -4.058190 39.284586 -1.264721 -20.136204 -12.259387 -141.279431 82.474830 -135.260768 -0.044412 -17.235004 0.538142 0.006015 -0.006180 0.002731 -22.796644 -23.188867 -3.947537 65.119956 77.124833 60.117490 -2.091443 -4.987977 -8.954568 -0.009295 0.002179 -0.004220
-6.918004 127.396687 34.794320 -170.217694 -58.333341 -6.941888 4.924468 25.335051 -2.927780 0.884050 4.167859 -0.623768 1.387208 6.666375 -0.955393 4.089875 20.793785 -2.560442 -0.964218 25.413627 -0.079470 -1.030242 1.889349 0.133474 15.421870 4.029296 -6.540886 34.071658 -45.622680 -26.242447 -173.366463 -51.054144 -165.918782 -7.292278 -26.516033 -57.733932 -5.993010 16.452441 6.780062 -22.011450 -57.580805 -4.943460 -177.018129 -46.737945 167.807870 3.529376 -4.030600 39.195722 -1.248367 -20.112121 -12.237590 -141.096425 82.467314 -135.072904 -0.022335 -17.219824 0.539196 0.007283 -0.002180 0.003307 -22.777022 -23.156935 -3.919556 65.127476 77.129497 60.121169 -2.089931 -4.979875 -8.951794 -0.008673 0.002486 -0.003938
-6.914750 127.395683 34.797643 -170.255105 -58.361748 -6.940976 4.955282 25.332102 -2.905529 0.888801 4.167530 -0.622154 1.394392 6.665549 -0.954662 4.109287 20.798250 -2.548032 -0.971412 25.412149 -0.071439 -1.031641 1.843016 0.147820 15.405112 4.028519 -6.534077 34.097186 -45.639860 -26.251132 -173.470419 -51.043975 -165.866262 -7.276699 -26.534147 -57.717893 -5.988977 16.411618 6.792898 -21.994301 -57.550936 -4.924410 -177.085697 -46.710077 167.862978 3.554025 -4.005051 39.135745 -1.235123 -20.092285 -12.213106 -140.920081 82.460245 -134.890868 -0.004158 -17.203033 0.542141 0.008459 0.001422 0.003841 -22.769720 -23.132987 -3.880461 65.157711 77.144502 60.141686 -2.087445 -4.973368 -8.952180 -0.006981 -0.000063 -0.003170
-6.913475 127.393911 34.801261 -170.289780 -58.383128 -6.931621 4.976239 25.324267 -2.894900 0.893756 4.166717 -0.620230 1.403103 6.664201 -0.954871 4.117580 20.816904 -2.536811 -0.970299 25.395941 -0.067379 -1.025516 1.792809 0.158546 15.396761 4.014464 -6.534108 34.118500 -45.649783 -26.256435 -173.496398 -51.055422 -165.859228 -7.264914 -26.563934 -57.710127 -5.974006 16.350598 6.803919 -22.008193 -57.519447 -4.873076 -177.145442 -46.711032 167.950395 3.577468 -4.012830 39.059650 -1.217176 -20.084328 -12.208069 -140.922582 82.458065 -134.887389 0.003704 -17.187157 0.547417 0.005468 0.002572 0.002483 -22.759637 -23.117917 -3.848297 65.203443 77.149053 60.180793 -2.104089 -4.969921 -8.955791 -0.003477 -0.000968 -0.001579
-6.913902 127.390919 34.805484 -170.305089 -58.393090 -6.928861 4.977929 25.308536 -2.895799 0.898221 4.165171 -0.618184 1.415435 6.663565 -0.952860 4.147172 20.813610 -2.522547 -0.974183 25.376245 -0.057036 -1.026756 1.763363 0.167842 15.372786 3.996240 -6.531015 34.127464 -45.653063 -26.244965 -173.507501 -51.079598 -165.865284 -7.275690 -26.594626 -57.696182 -5.991699 16.351639 6.807217 -22.047523 -57.523452 -4.788541 -177.185623 -46.711431 168.019247 3.604199 -4.023734 38.993251 -1.210200 -20.090072 -12.209806 -140.927619 82.452820 -134.891976 0.009029 -17.166974 0.546619 0.002996 0.002936 0.001360 -22.756406 -23.114115 -3.817330 65.218015 77.163083 60.189051 -2.117094 -4.968428 -8.963652 0.002124 0.001991 0.000964
-6.912440 127.390236 34.808055 -170.363592 -58.416979 -6.900690 5.008993 25.304044 -2.881840 0.901980 4.163429 -0.616190 1.422584 6.658016 -0.951182 4.172106 20.807233 -2.509257 -0.951612 25.303549 -0.038867 -1.040330 1.790062 0.171371 15.353552 3.987394 -6.534165 34.145197 -45.673156 -26.236735 -173.485866 -51.071562 -165.884928 -7.280695 -26.556523 -57.707038 -5.999347 16.358169 6.804630 -22.102978 -57.532661 -4.691897 -177.246049 -46.633360 168.044344 3.626495 -3.955037 39.005218 -1.198269 -20.088308 -12.197338 -140.807065 82.439812 -134.774687 0.032997 -17.139968 0.524992 0.002244 0.002238 0.001019 -22.728255 -23.089594 -3.799882 65.257342 77.134999 60.235693 -2.151206 -4.957447 -8.979111 0.001204 0.005134 0.000547
-6.908055 127.392380 34.808661 -170.455155 -58.456258 -6.861197 5.067390 25.312979 -2.846280 0.905283 4.161839 -0.614332 1.427704 6.655293 -0.949520 4.206856 20.773315 -2.485747 -0.970466 25.335571 -0.046385 -1.023726 1.733790 0.180240 15.331339 3.981724 -6.538261 34.132331 -45.668126 -26.200091 -173.455396 -51.079201 -165.906029 -7.287773 -26.543772 -57.711332 -5.981353 16.308535 6.807555 -22.159693 -57.482548 -4.650139 -177.312730 -46.585770 168.094032 3.635896 -3.915502 39.011208 -1.191400 -20.073863 -12.154239 -140.650592 82.428418 -134.638381 0.052096 -17.108966 0.497781 0.001173 0.003501 0.000533 -22.682227 -23.048125 -3.764615 65.262947 77.142377 60.246678 -2.177139 -4.953651 -8.985092 -0.003566 0.002726 -0.001619
